<svg width="25" height="24" viewBox="0 0 25 24" fill="none" xmlns="http://www.w3.org/2000/svg">
<path fill-rule="evenodd" clip-rule="evenodd" d="M2.49998 1.34998C2.14099 1.34998 1.84998 1.64099 1.84998 1.99998V4.70268C1.84998 5.06166 2.14099 5.35268 2.49998 5.35268C2.85896 5.35268 3.14998 5.06166 3.14998 4.70268V2.64998H5.20268C5.56166 2.64998 5.85268 2.35896 5.85268 1.99998C5.85268 1.64099 5.56166 1.34998 5.20268 1.34998H2.49998ZM23.15 1.99998C23.15 1.64099 22.859 1.34998 22.5 1.34998H19.7973C19.4383 1.34998 19.1473 1.64099 19.1473 1.99998C19.1473 2.35896 19.4383 2.64998 19.7973 2.64998L21.85 2.64998V4.70268C21.85 5.06166 22.141 5.35268 22.5 5.35268C22.859 5.35268 23.15 5.06166 23.15 4.70268V1.99998ZM23.15 22C23.15 22.359 22.859 22.65 22.5 22.65H19.7973C19.4383 22.65 19.1473 22.359 19.1473 22C19.1473 21.641 19.4383 21.35 19.7973 21.35L21.85 21.35V19.2973C21.85 18.9383 22.141 18.6473 22.5 18.6473C22.859 18.6473 23.15 18.9383 23.15 19.2973V22ZM1.84998 22C1.84998 22.359 2.14099 22.65 2.49998 22.65H5.20268C5.56166 22.65 5.85268 22.359 5.85268 22C5.85268 21.641 5.56166 21.35 5.20268 21.35H3.14998L3.14998 19.2973C3.14998 18.9383 2.85896 18.6473 2.49998 18.6473C2.14099 18.6473 1.84998 18.9383 1.84998 19.2973V22ZM12.5004 18.7004C16.2007 18.7004 19.2004 15.7007 19.2004 12.0004C19.2004 8.30006 16.2007 5.30037 12.5004 5.30037C8.80006 5.30037 5.80037 8.30006 5.80037 12.0004C5.80037 15.7007 8.80006 18.7004 12.5004 18.7004ZM12.5004 20.0004C16.9186 20.0004 20.5004 16.4186 20.5004 12.0004C20.5004 7.58209 16.9186 4.00037 12.5004 4.00037C8.08209 4.00037 4.50037 7.58209 4.50037 12.0004C4.50037 16.4186 8.08209 20.0004 12.5004 20.0004ZM10.6856 14.3772C10.3415 14.2748 9.97955 14.4707 9.87715 14.8147C9.77475 15.1588 9.97066 15.5207 10.3147 15.6231C11.008 15.8295 11.7417 15.94 12.5001 15.94C13.2586 15.94 13.9923 15.8295 14.6856 15.6231C15.0296 15.5207 15.2255 15.1588 15.1231 14.8147C15.0207 14.4707 14.6588 14.2748 14.3147 14.3772C13.7406 14.548 13.1317 14.64 12.5001 14.64C11.8686 14.64 11.2597 14.548 10.6856 14.3772ZM10.5004 10.0004C10.5004 10.5527 10.0527 11.0004 9.50037 11.0004C8.94808 11.0004 8.50037 10.5527 8.50037 10.0004C8.50037 9.44808 8.94808 9.00037 9.50037 9.00037C10.0527 9.00037 10.5004 9.44808 10.5004 10.0004ZM15.5004 11.0004C16.0527 11.0004 16.5004 10.5527 16.5004 10.0004C16.5004 9.44808 16.0527 9.00037 15.5004 9.00037C14.9481 9.00037 14.5004 9.44808 14.5004 10.0004C14.5004 10.5527 14.9481 11.0004 15.5004 11.0004Z" fill="#274A79"/>
</svg>
