<svg width="25" height="24" viewBox="0 0 25 24" fill="none" xmlns="http://www.w3.org/2000/svg">
<path fill-rule="evenodd" clip-rule="evenodd" d="M12.7628 2.3C9.431 2.3 7.00217 4.18348 6.13826 7.40819C6.13712 7.41246 6.13593 7.41671 6.13471 7.42094C5.69173 9.08187 5.66654 10.6646 6.19119 12.0393C6.7118 13.4035 7.80315 14.6405 9.74617 15.5683C9.97218 15.6762 10.1161 15.9044 10.1161 16.1549V19.4611H15.4096V16.1554C15.4096 15.9232 15.5335 15.7086 15.7345 15.5925C18.6571 13.9049 20.2407 10.5937 19.3874 7.40816C18.5235 4.18298 16.0947 2.3 12.7628 2.3ZM4.88633 7.05767C5.90424 3.27967 8.84062 1 12.7628 1C16.6899 1 19.6287 3.28476 20.6431 7.0718C21.6346 10.7735 19.8706 14.5227 16.7096 16.5218V20.1111C16.7096 20.4701 16.4186 20.7611 16.0596 20.7611H9.46607C9.10709 20.7611 8.81607 20.4701 8.81607 20.1111V16.5567C6.83703 15.5237 5.59639 14.1267 4.97663 12.5028C4.32455 10.7942 4.38925 8.91209 4.88255 7.0712C4.88377 7.06667 4.88503 7.06216 4.88633 7.05767ZM8.81607 22.7484C8.81607 22.3894 9.10709 22.0984 9.46607 22.0984H16.0596C16.4186 22.0984 16.7096 22.3894 16.7096 22.7484C16.7096 23.1073 16.4186 23.3984 16.0596 23.3984H9.46607C9.10709 23.3984 8.81607 23.1073 8.81607 22.7484Z" fill="#274A79"/>
<path fill-rule="evenodd" clip-rule="evenodd" d="M13.4443 3.631C13.4904 3.98701 13.2392 4.313 12.8832 4.35914C10.2021 4.70655 9.05874 5.92979 8.54383 6.98106C8.27684 7.52614 8.16496 8.05473 8.12066 8.4487C8.09862 8.64473 8.09367 8.80429 8.09396 8.91151C8.0941 8.96501 8.09555 9.00514 8.09678 9.02989C8.0974 9.04225 8.09796 9.05074 8.09827 9.05509L8.09832 9.05619L8.09846 9.05778L8.09838 9.05682L8.09832 9.05619C8.09838 9.05688 8.09845 9.05757 8.09851 9.05826C8.12955 9.4146 7.86668 9.72933 7.51012 9.76192C7.15263 9.7946 6.83633 9.53129 6.80365 9.17379L7.42498 9.117C6.80365 9.17378 6.80361 9.17337 6.80358 9.17295L6.80349 9.172L6.80329 9.16977L6.80281 9.16402L6.80155 9.14742C6.8006 9.13413 6.79948 9.1164 6.79839 9.09451C6.79621 9.05074 6.79417 8.9902 6.79396 8.91504C6.79355 8.76494 6.80049 8.55522 6.8288 8.30344C6.88521 7.8018 7.02789 7.12065 7.37635 6.40923C8.09231 4.94749 9.62327 3.47069 12.7161 3.06991C13.0721 3.02378 13.3981 3.27499 13.4443 3.631Z" fill="#274A79"/>
</svg>
