<svg width="25" height="24" viewBox="0 0 25 24" fill="none" xmlns="http://www.w3.org/2000/svg">
<path d="M5.75 3.75H19.25C20.0456 3.75 20.8087 4.06607 21.3713 4.62868C21.9339 5.19129 22.25 5.95435 22.25 6.75V14.25C22.25 15.0456 21.9339 15.8087 21.3713 16.3713C20.8087 16.9339 20.0456 17.25 19.25 17.25H11L6.5 20.25V17.25H5.75C4.95435 17.25 4.19129 16.9339 3.62868 16.3713C3.06607 15.8087 2.75 15.0456 2.75 14.25V6.75C2.75 5.95435 3.06607 5.19129 3.62868 4.62868C4.19129 4.06607 4.95435 3.75 5.75 3.75Z" stroke="#274A79" stroke-width="1.3" stroke-linecap="round" stroke-linejoin="round"/>
<path d="M7.5 12H15.5" stroke="#274A79" stroke-width="1.3" stroke-linecap="round" stroke-linejoin="round"/>
<path d="M7.5 9H17.5" stroke="#274A79" stroke-width="1.3" stroke-linecap="round" stroke-linejoin="round"/>
</svg>
