<svg width="25" height="24" viewBox="0 0 25 24" fill="none" xmlns="http://www.w3.org/2000/svg">
<path d="M15.198 5.72188C15.3413 5.69045 15.4484 5.71944 15.5054 5.74334L19.3034 9.91569C19.1334 9.89501 18.9622 9.88421 18.7908 9.88338L18.7892 9.8834C17.6739 9.89528 16.5974 10.2952 15.7449 11.0146C14.9261 11.7054 14.3629 12.6495 14.143 13.6954C13.6362 13.4561 13.0822 13.3316 12.5206 13.3316C11.9591 13.3316 11.4051 13.4561 10.8983 13.6954C10.6779 12.6422 10.109 11.6923 9.28169 11.0002C8.42047 10.2799 7.33376 9.88464 6.211 9.88338L6.20948 9.8834C6.05573 9.88558 5.9022 9.89476 5.74938 9.9109L9.5529 5.74333C9.61398 5.7177 9.72639 5.68881 9.87269 5.72175C10.0329 5.75782 10.246 5.8708 10.4841 6.16903L10.5472 6.24814L10.6255 6.18404L11.3803 5.56651L11.4583 5.5027L11.3939 5.42521C10.902 4.83318 10.3805 4.58812 9.91924 4.53704C9.46113 4.4863 9.07038 4.62794 8.83936 4.79652L8.83133 4.80238L8.82461 4.8097L3.19771 10.945C2.57528 11.4428 2.08692 12.0882 1.77694 12.8225C1.46594 13.5593 1.34441 14.3622 1.42344 15.158C1.50247 15.9538 1.77953 16.7171 2.22935 17.3783C2.67917 18.0395 3.28742 18.5775 3.99859 18.9433C4.70976 19.309 5.5012 19.4908 6.30069 19.4721C7.10018 19.4534 7.88226 19.2348 8.57554 18.8362C9.26883 18.4376 9.85125 17.8717 10.2697 17.1902C10.6796 16.5224 10.9193 15.7645 10.9681 14.983C11.417 14.6689 11.952 14.5001 12.5006 14.5001C13.0493 14.5001 13.5844 14.6689 14.0333 14.9831C14.0855 15.7613 14.3269 16.5153 14.737 17.1792C15.1555 17.8569 15.7365 18.4195 16.4272 18.816C17.118 19.2125 17.8967 19.4305 18.693 19.4502C19.4892 19.4699 20.2778 19.2906 20.9873 18.9287C21.6968 18.5668 22.3048 18.0336 22.7563 17.3775C23.2078 16.7213 23.4885 15.963 23.573 15.171C23.6575 14.379 23.5431 13.5784 23.2402 12.8418C22.9373 12.1052 22.4554 11.4557 21.8383 10.9523L21.7842 10.9082L16.3142 4.87872L16.3088 4.87281L16.3026 4.86782L16.2168 4.79921L16.2169 4.79904L16.2116 4.79532C15.9844 4.63656 15.5946 4.49499 15.1368 4.54342C14.6756 4.5922 14.1537 4.83285 13.6643 5.42543L13.6003 5.50289L13.6781 5.56651L14.4328 6.18404L14.5098 6.24702L14.5732 6.17039C14.8229 5.8685 15.0392 5.75669 15.198 5.72188ZM20.1845 18.0273C19.7526 18.2031 19.2908 18.2938 18.8246 18.2945V18.2944C18.1093 18.2944 17.4101 18.0823 16.8153 17.6849C16.2206 17.2875 15.757 16.7227 15.4833 16.0618C15.2095 15.401 15.1379 14.6738 15.2775 13.9722C15.417 13.2707 15.7615 12.6262 16.2673 12.1204C16.773 11.6146 17.4175 11.2702 18.119 11.1306C18.8206 10.9911 19.5478 11.0627 20.2086 11.3365C20.8695 11.6102 21.4343 12.0737 21.8317 12.6685C22.2291 13.2632 22.4412 13.9624 22.4412 14.6776C22.4405 15.1552 22.3454 15.6279 22.1613 16.0686C21.9772 16.5093 21.7077 16.9092 21.3685 17.2453C21.0292 17.5815 20.6269 17.8472 20.1845 18.0273ZM6.21089 18.2944C5.49559 18.2944 4.79635 18.0823 4.20159 17.6849C3.60684 17.2875 3.14329 16.7227 2.86955 16.0618C2.59582 15.401 2.52419 14.6738 2.66374 13.9722C2.80329 13.2707 3.14774 12.6262 3.65354 12.1204C4.15934 11.6146 4.80376 11.2702 5.50532 11.1306C6.20688 10.9911 6.93407 11.0627 7.59492 11.3365C8.25578 11.6102 8.82062 12.0737 9.21802 12.6685C9.61542 13.2633 9.82753 13.9625 9.82753 14.6778C9.82753 15.637 9.4465 16.5569 8.76824 17.2351C8.08999 17.9134 7.17009 18.2944 6.21089 18.2944Z" fill="#274A79" stroke="#274A79" stroke-width="0.2"/>
</svg>
